<?xml version="1.0"?>
<svg version="1.1" id="圖層_1" xmlns="http://www.w3.org/2000/svg" x="0" y="0" viewBox="0 0 100 100" xml:space="preserve"><circle cx="50" cy="50" r="40" fill="#333"/><circle cx="50" cy="50" r="40" fill="#333"/><path d="M67.681 55.133c-.037-.033-.079-.057-.118-.088l-.013-19.926v-7.172a1.946 1.946 0 0 0-2.271-1.919l-26.426 4.471a1.947 1.947 0 0 0-1.622 1.919v28.536c-1.184.609-2.361 1.513-3.396 2.687-2.963 3.361-3.642 7.604-1.517 9.477 2.125 1.873 6.249.667 9.212-2.694 2.963-3.361 3.642-7.604 1.517-9.477-.037-.033-.079-.057-.118-.088v-20.89l18.934-3.203V55.14c-1.184.609-2.361 1.513-3.396 2.687-2.963 3.361-3.642 7.604-1.517 9.477s6.249.667 9.212-2.694c2.965-3.36 3.644-7.604 1.519-9.477z" fill="#fff"/><metadata xmlns:d="https://loading.io/stock/"><d:name>music</d:name><d:tags>music,song,rhythm,play,sing,karaoke,listen,beat,dance</d:tags><d:license>by</d:license><d:slug>pt6s51</d:slug></metadata></svg>